<svg xmlns="http://www.w3.org/2000/svg" width="960" height="540" viewBox="0 0 960 540">
  <rect fill="#0b1120" width="960" height="540" rx="26" />
  <rect x="24" y="24" width="912" height="492" fill="#f4f4ff" rx="20" />
  <rect x="52" y="84" width="856" height="360" fill="#eef2ff" rx="18" stroke="#4f46e5" stroke-width="3" />
  <text x="72" y="120" fill="#1e1b4b" font-size="28" font-weight="700" font-family="'Inter', sans-serif">Editor toolbar</text>
  <text x="72" y="154" fill="#312e81" font-size="20" font-family="'Inter', sans-serif">Save · Validate · YAML · JPG · Fit to content · Center · Auto-layout</text>
  <rect x="72" y="180" width="816" height="248" fill="#ffffff" rx="14" stroke="#c7d2fe" stroke-width="2" />
  <rect x="108" y="216" width="212" height="160" fill="#bae6fd" rx="14" stroke="#0ea5e9" stroke-width="2" />
  <text x="124" y="248" fill="#075985" font-size="20" font-family="'Inter', sans-serif">Question node</text>
  <text x="124" y="276" fill="#0369a1" font-size="16" font-family="'Inter', sans-serif">Pan, zoom & snap-to-grid.</text>
  <rect x="344" y="236" width="192" height="140" fill="#e9d5ff" rx="14" stroke="#8b5cf6" stroke-width="2" />
  <text x="360" y="268" fill="#5b21b6" font-size="20" font-family="'Inter', sans-serif">Action node</text>
  <text x="360" y="296" fill="#6d28d9" font-size="16" font-family="'Inter', sans-serif">Parameters on the inspector.</text>
  <rect x="568" y="256" width="204" height="120" fill="#bbf7d0" rx="14" stroke="#16a34a" stroke-width="2" />
  <text x="584" y="286" fill="#14532d" font-size="20" font-family="'Inter', sans-serif">Message node</text>
  <text x="584" y="314" fill="#166534" font-size="16" font-family="'Inter', sans-serif">Severity and metadata supported.</text>
  <path d="M320 268 L344 268" stroke="#334155" stroke-width="4" marker-end="url(#arrow)" />
  <path d="M536 288 L568 288" stroke="#334155" stroke-width="4" marker-end="url(#arrow)" />
  <defs>
    <marker id="arrow" markerWidth="12" markerHeight="12" refX="6" refY="6" orient="auto">
      <polygon points="0 0, 12 6, 0 12" fill="#334155" />
    </marker>
  </defs>
  <rect x="72" y="452" width="816" height="40" fill="#312e81" opacity="0.1" rx="12" />
  <text x="92" y="480" fill="#1d4ed8" font-size="18" font-family="'Inter', sans-serif">Inspector (right) edits nodes & edges · Palette (left) adds quick templates.</text>
</svg>
